<svg xmlns="http://www.w3.org/2000/svg" viewBox="0 0 32 32" fill="none">
  <rect width="32" height="32" rx="8" fill="#7c3aed"/>
  <path d="M8 22 C8 18 11 15 14 14 C12 13 10 11 10 8 C10 5.8 11.8 4 14 4 C15.5 4 16.8 4.8 17.5 6 C18.2 4.8 19.5 4 21 4 C23.2 4 25 5.8 25 8 C25 11 23 13 21 14 C24 15 27 18 27 22 L27 24 C27 25.1 26.1 26 25 26 L8 26 Z" fill="white" opacity="0.15"/>
  <path d="M16 7 C16 7 12 10 12 14 C12 16.2 13.8 18 16 18 C18.2 18 20 16.2 20 14 C20 10 16 7 16 7 Z" fill="white"/>
  <circle cx="16" cy="14" r="2.5" fill="#7c3aed"/>
  <path d="M11 20 L21 20 C22 20 23 21 23 22 L23 24 L9 24 L9 22 C9 21 10 20 11 20 Z" fill="white"/>
</svg>
